# xmcd
#
# Track frame offsets:
#	150
#	21793
#	41494
#	61416
#	90235
#
# Disc length: 1299 seconds
#
# Revision: 1
# Processed by: cddbd v1.5.2PL0 Copyright (c) Steve Scherf et al.
# Submitted via: audiograbber 1.83.01
#
DISCID=31051105
DTITLE=Lu - Casa esperanza
DYEAR=2008
DGENRE=Rock Funk Blues
TTITLE0=Casa esperanza
TTITLE1=Se stasera
TTITLE2=My home
TTITLE3=In viaggio
TTITLE4=Box 5
EXTD=
EXTT0=
EXTT1=
EXTT2=
EXTT3=
EXTT4=
PLAYORDER=
